<svg width="221" height="44" viewBox="0 0 221 44" fill="none" xmlns="http://www.w3.org/2000/svg">
	<path
		d="M207.84 36.0161C205.115 36.0161 202.669 35.3763 200.501 34.0968C198.334 32.8172 196.64 31.0936 195.421 28.9258C194.216 26.7581 193.614 24.3946 193.614 21.8355C193.614 19.2462 194.186 16.8677 195.33 14.7C196.489 12.5172 198.1 10.786 200.163 9.50645C202.225 8.21183 204.566 7.56452 207.185 7.56452C210.015 7.56452 212.469 8.1742 214.546 9.39355C216.624 10.6129 218.205 12.2989 219.288 14.4516C220.387 16.6043 220.937 19.0505 220.937 21.7903C220.937 22.3925 220.907 22.9871 220.846 23.5742C220.786 24.1312 220.47 24.4097 219.898 24.4097H201.495C201.992 25.9151 202.842 27.0892 204.046 27.9323C205.251 28.7753 206.621 29.1968 208.156 29.1968C209.135 29.1968 210.015 29.0613 210.798 28.7903C211.596 28.5043 212.371 28.0979 213.124 27.571C213.32 27.4204 213.515 27.3452 213.711 27.3452C213.952 27.3452 214.17 27.4806 214.366 27.7516L217.143 31.7032C217.279 31.8989 217.346 32.0871 217.346 32.2677C217.346 32.5237 217.226 32.7495 216.985 32.9452C215.736 33.9237 214.336 34.6839 212.785 35.2258C211.25 35.7527 209.601 36.0161 207.84 36.0161ZM213.35 18.7645C212.928 17.2742 212.206 16.1301 211.182 15.3323C210.158 14.5344 208.909 14.1355 207.434 14.1355C205.988 14.1355 204.731 14.5419 203.663 15.3548C202.609 16.1677 201.864 17.3043 201.427 18.7645H213.35Z"
		fill="white" />

	<path
		d="M175.479 7.56452C178.039 7.56452 180.402 8.19678 182.57 9.46129C184.738 10.7258 186.454 12.4419 187.718 14.6097C188.998 16.7624 189.638 19.1258 189.638 21.7C189.638 24.2893 189.005 26.6753 187.741 28.8581C186.476 31.0258 184.76 32.7495 182.592 34.029C180.425 35.2936 178.054 35.9258 175.479 35.9258C172.966 35.9258 170.828 35.2409 169.067 33.871V42.4516C169.067 43.0538 168.766 43.3548 168.163 43.3548H162.292C161.69 43.3548 161.389 43.0538 161.389 42.4516V8.91936C161.389 8.31721 161.69 8.01613 162.292 8.01613H166.628C167.125 8.01613 167.471 8.24947 167.667 8.71613L168.321 10.2516C170.218 8.46022 172.604 7.56452 175.479 7.56452ZM175.344 28.5871C176.609 28.5871 177.738 28.3011 178.731 27.729C179.74 27.1419 180.53 26.3366 181.102 25.3129C181.674 24.2893 181.96 23.1226 181.96 21.8129C181.96 20.5032 181.667 19.3215 181.079 18.2677C180.507 17.214 179.71 16.3935 178.686 15.8065C177.677 15.2043 176.548 14.9032 175.299 14.9032C174.049 14.9032 172.913 15.2043 171.889 15.8065C170.866 16.4086 170.06 17.2366 169.473 18.2903C168.886 19.329 168.592 20.5032 168.592 21.8129C168.592 23.1075 168.886 24.2742 169.473 25.3129C170.075 26.3366 170.888 27.1419 171.912 27.729C172.95 28.3011 174.095 28.5871 175.344 28.5871Z"
		fill="white" />

	<path
		d="M143.741 42.6323C143.561 43.114 143.214 43.3548 142.703 43.3548H136.493C136.237 43.3548 136.041 43.3021 135.906 43.1968C135.77 43.0914 135.703 42.9409 135.703 42.7452C135.703 42.5946 135.733 42.4516 135.793 42.3161L138.638 35.2258L128.657 9.05484C128.612 8.91936 128.59 8.7914 128.59 8.67097C128.59 8.46021 128.657 8.30215 128.793 8.19677C128.928 8.07634 129.117 8.01613 129.357 8.01613H135.951C136.493 8.01613 136.839 8.26452 136.99 8.76129L142.477 25.5387L148.009 8.76129C148.16 8.26452 148.506 8.01613 149.048 8.01613H155.664C155.905 8.01613 156.093 8.07634 156.228 8.19677C156.379 8.30215 156.454 8.46021 156.454 8.67097C156.454 8.7914 156.432 8.91936 156.386 9.05484L143.741 42.6323Z"
		fill="white" />

	<path
		d="M103.957 34.4355C103.957 35.0376 103.656 35.3387 103.054 35.3387H96.7314C96.1292 35.3387 95.8281 35.0376 95.8281 34.4355V4.51613C95.8281 3.91398 96.1292 3.6129 96.7314 3.6129H103.054C103.656 3.6129 103.957 3.91398 103.957 4.51613V14.8581H115.541V4.51613C115.541 3.91398 115.842 3.6129 116.444 3.6129H122.767C123.369 3.6129 123.67 3.91398 123.67 4.51613V34.4355C123.67 35.0376 123.369 35.3387 122.767 35.3387H116.444C115.842 35.3387 115.541 35.0376 115.541 34.4355V22.6258H103.957V34.4355Z"
		fill="white" />

	<path
		d="M75.887 7.56452C78.4461 7.56452 80.8096 8.19677 82.9773 9.46129C85.1451 10.7258 86.8612 12.4419 88.1257 14.6097C89.4053 16.7624 90.0451 19.1258 90.0451 21.7C90.0451 24.2892 89.4128 26.6753 88.1483 28.8581C86.8838 31.0258 85.1676 32.7495 82.9999 34.029C80.8321 35.2935 78.4612 35.9258 75.887 35.9258C73.0418 35.9258 70.6784 35.0452 68.7967 33.2839L68.2321 34.6387C68.0364 35.1054 67.6902 35.3387 67.1934 35.3387H62.6999C62.0977 35.3387 61.7967 35.0376 61.7967 34.4355V0.903227C61.7967 0.301075 62.0977 0 62.6999 0H68.5709C69.173 0 69.4741 0.301075 69.4741 0.903227V9.61936C71.2354 8.24946 73.373 7.56452 75.887 7.56452ZM75.7515 28.5871C77.016 28.5871 78.145 28.3011 79.1386 27.729C80.1472 27.1419 80.9375 26.3366 81.5096 25.3129C82.0816 24.2892 82.3676 23.1226 82.3676 21.8129C82.3676 20.5032 82.0741 19.3215 81.487 18.2677C80.9149 17.214 80.1171 16.3935 79.0934 15.8065C78.0848 15.2043 76.9558 14.9032 75.7063 14.9032C74.4569 14.9032 73.3203 15.2043 72.2967 15.8065C71.273 16.4086 70.4676 17.2366 69.8805 18.2903C69.2934 19.329 68.9999 20.5032 68.9999 21.8129C68.9999 23.1075 69.2934 24.2742 69.8805 25.3129C70.4827 26.3366 71.2956 27.1419 72.3192 27.729C73.358 28.3011 74.502 28.5871 75.7515 28.5871Z"
		fill="white" />

	<path
		d="M35.5346 16.41C34.3861 17.5584 33.8119 18.9461 33.8119 20.5731C33.8119 22.2 34.3861 23.5946 35.5346 24.7567C36.6967 25.9051 38.0912 26.4793 39.7181 26.4793C41.3451 26.4793 42.7328 25.9051 43.8812 24.7567C45.0433 23.5946 45.6244 22.2 45.6244 20.5731C45.6244 18.9461 45.0433 17.5584 43.8812 16.41C42.7328 15.2479 41.3451 14.6668 39.7181 14.6668C38.0912 14.6668 36.6967 15.2479 35.5346 16.41ZM34.4887 25.8026C33.0531 24.3534 32.3353 22.6102 32.3353 20.5731C32.3353 18.536 33.0531 16.7996 34.4887 15.3641C35.9379 13.9149 37.681 13.1903 39.7181 13.1903C41.7553 13.1903 43.4916 13.9149 44.9271 15.3641C46.3764 16.7996 47.101 18.536 47.101 20.5731C47.101 22.6102 46.3764 24.3534 44.9271 25.8026C43.4916 27.2381 41.7553 27.9559 39.7181 27.9559C37.681 27.9559 35.9379 27.2381 34.4887 25.8026ZM33.4428 14.3182C31.7201 16.0545 30.8588 18.1395 30.8588 20.5731C30.8588 23.0067 31.7201 25.0916 33.4428 26.828C35.1791 28.5643 37.2709 29.4325 39.7181 29.4325C42.1654 29.4325 44.2504 28.5643 45.973 26.828C47.7094 25.0916 48.5775 23.0067 48.5775 20.5731C48.5775 18.1395 47.7094 16.0545 45.973 14.3182C44.2504 12.5819 42.1654 11.7137 39.7181 11.7137C37.2709 11.7137 35.1791 12.5819 33.4428 14.3182ZM30.7562 25.7616C29.8402 24.1756 29.3822 22.4461 29.3822 20.5731C29.3822 18.7 29.8402 16.9705 30.7562 15.3846C31.6859 13.7987 32.9437 12.5477 34.5297 11.6317C36.1156 10.702 37.8451 10.2371 39.7181 10.2371C41.5912 10.2371 43.3207 10.702 44.9066 11.6317C46.4926 12.5477 47.7435 13.7987 48.6596 15.3846C49.5892 16.9705 50.0541 18.7 50.0541 20.5731C50.0541 22.4461 49.5892 24.1756 48.6596 25.7616C47.7435 27.3475 46.4926 28.6053 44.9066 29.535C43.3207 30.451 41.5912 30.909 39.7181 30.909C37.8451 30.909 36.1156 30.451 34.5297 29.535C32.9437 28.6053 31.6859 27.3475 30.7562 25.7616ZM28.8285 15.9998C28.2133 17.4491 27.9056 18.9735 27.9056 20.5731C27.9056 22.1727 28.2133 23.7039 28.8285 25.1668C29.4574 26.6161 30.2982 27.8739 31.351 28.9403C32.4174 29.993 33.6752 30.8338 35.1244 31.4627C36.5873 32.078 38.1185 32.3856 39.7181 32.3856C41.3178 32.3856 42.8422 32.078 44.2914 31.4627C45.7543 30.8338 47.0121 29.993 48.0648 28.9403C49.1312 27.8739 49.9721 26.6161 50.5873 25.1668C51.2162 23.7039 51.5306 22.1727 51.5306 20.5731C51.5306 18.9735 51.2162 17.4491 50.5873 15.9998C49.9721 14.537 49.1312 13.2791 48.0648 12.2264C47.0121 11.16 45.7543 10.3192 44.2914 9.70395C42.8422 9.07504 41.3178 8.76059 39.7181 8.76059C38.1185 8.76059 36.5873 9.07504 35.1244 9.70395C33.6752 10.3192 32.4174 11.16 31.351 12.2264C30.2982 13.2791 29.4574 14.537 28.8285 15.9998ZM27.475 25.7411C26.7777 24.1004 26.4291 22.3778 26.4291 20.5731C26.4291 18.7684 26.7777 17.0457 27.475 15.4051C28.1859 13.7645 29.1293 12.3563 30.3051 11.1805C31.4945 9.99105 32.9096 9.0477 34.5502 8.35043C36.1908 7.63949 37.9135 7.28402 39.7181 7.28402C41.5228 7.28402 43.2455 7.63949 44.8861 8.35043C46.5267 9.0477 47.9349 9.99105 49.1107 11.1805C50.3002 12.3563 51.2435 13.7645 51.9408 15.4051C52.6517 17.0457 53.0072 18.7684 53.0072 20.5731C53.0072 22.3778 52.6517 24.1004 51.9408 25.7411C51.2435 27.3817 50.3002 28.7967 49.1107 29.9862C47.9349 31.162 46.5267 32.1053 44.8861 32.8162C43.2455 33.5135 41.5228 33.8621 39.7181 33.8621C37.9135 33.8621 36.1908 33.5135 34.5502 32.8162C32.9096 32.1053 31.4945 31.162 30.3051 29.9862C29.1293 28.7967 28.1859 27.3817 27.475 25.7411ZM26.1215 14.8514C25.3422 16.6698 24.9525 18.577 24.9525 20.5731C24.9525 22.5692 25.3422 24.4832 26.1215 26.3153C26.9008 28.1336 27.9467 29.7059 29.2592 31.0321C30.5853 32.3446 32.1576 33.3905 33.976 34.1698C35.808 34.9491 37.7221 35.3387 39.7181 35.3387C41.7142 35.3387 43.6215 34.9491 45.4398 34.1698C47.2719 33.3905 48.8441 32.3446 50.1566 31.0321C51.4828 29.7059 52.5355 28.1336 53.3148 26.3153C54.0941 24.4832 54.4838 22.5692 54.4838 20.5731C54.4838 18.577 54.0941 16.6698 53.3148 14.8514C52.5355 13.0194 51.4828 11.4471 50.1566 10.1346C48.8441 8.80844 47.2719 7.7557 45.4398 6.97641C43.6215 6.19711 41.7142 5.80746 39.7181 5.80746C37.7221 5.80746 35.808 6.19711 33.976 6.97641C32.1576 7.7557 30.5853 8.80844 29.2592 10.1346C27.9467 11.4471 26.9008 13.0194 26.1215 14.8514ZM24.768 26.8895C23.9066 24.8797 23.476 22.7743 23.476 20.5731C23.476 18.3719 23.9066 16.2733 24.768 14.2772C25.6293 12.2674 26.7846 10.5379 28.2338 9.08871C29.683 7.63949 31.4056 6.48422 33.4017 5.62289C35.4115 4.76156 37.517 4.3309 39.7181 4.3309C41.9193 4.3309 44.018 4.76156 46.014 5.62289C48.0238 6.48422 49.7533 7.63949 51.2025 9.08871C52.6517 10.5379 53.807 12.2674 54.6683 14.2772C55.5297 16.2733 55.9603 18.3719 55.9603 20.5731C55.9603 22.7743 55.5297 24.8797 54.6683 26.8895C53.807 28.8856 52.6517 30.6082 51.2025 32.0575C49.7533 33.5067 48.0238 34.662 46.014 35.5233C44.018 36.3846 41.9193 36.8153 39.7181 36.8153C37.517 36.8153 35.4115 36.3846 33.4017 35.5233C31.4056 34.662 29.683 33.5067 28.2338 32.0575C26.7846 30.6082 25.6293 28.8856 24.768 26.8895Z"
		fill="#2563EB" />

	<path
		d="M7.99355 36.0161C6.78925 36.0161 5.52473 35.7753 4.2 35.2935C2.87527 34.7968 1.5957 34.1043 0.36129 33.2161C0.12043 33.0355 0 32.8247 0 32.5839C0 32.4032 0.0752688 32.1849 0.225806 31.929L3.56774 27.1645C3.73333 26.9086 3.95161 26.7806 4.22258 26.7806C4.43333 26.7806 4.63656 26.8559 4.83226 27.0065C6.03656 27.8043 7.06774 28.2032 7.92581 28.2032C8.7086 28.2032 9.31828 27.9548 9.75484 27.4581C10.1914 26.9462 10.4097 26.171 10.4097 25.1323V4.51613C10.4097 3.91398 10.7108 3.6129 11.3129 3.6129H17.6355C18.2376 3.6129 18.5387 3.91398 18.5387 4.51613V25.6968C18.5387 27.8043 18.1097 29.6333 17.2516 31.1839C16.4086 32.7344 15.1892 33.9312 13.5935 34.7742C12.0129 35.6021 10.1462 36.0161 7.99355 36.0161Z"
		fill="white" />
</svg>